#tb 0: 1/25
0,          0,          0,        1,  3339072, 0xcb16f53e
0,          4,          4,        1,  3339072, 0x6f1da8ec
0,          6,          6,        1,  3339072, 0x978dae98
0,          7,          7,        1,  3339072, 0x34becc01
0,          8,          8,        1,  3339072, 0x9c900137
0,          9,          9,        1,  3339072, 0x02fe1d40
